<mxfile host="app.diagrams.net" modified="2023-06-23T13:21:02.933Z" agent="Mozilla/5.0 (Macintosh; Intel Mac OS X 10_15_7) AppleWebKit/605.1.15 (KHTML, like Gecko) Version/16.1 Safari/605.1.15" version="21.5.0" etag="95L0R4ND74jUveS5FEwH" type="github">
  <diagram name="Page-1" id="O-KHWILrldmO3U2F1ggK">
    <mxGraphModel>
      <root>
        <mxCell id="0" />
        <mxCell id="1" parent="0" />
      </root>
    </mxGraphModel>
  </diagram>
</mxfile>
